<?xml version="1.0" standalone="no"?>
<!DOCTYPE svg PUBLIC "-//W3C//DTD SVG 20010904//EN"
 "http://www.w3.org/TR/2001/REC-SVG-20010904/DTD/svg10.dtd">
<svg version="1.0" xmlns="http://www.w3.org/2000/svg" id="logo"
 width="1235.000000pt" height="394.000000pt" viewBox="0 0 1235.000000 394.000000"
 preserveAspectRatio="xMidYMid meet">

<g transform="translate(0.000000,394.000000) scale(0.100000,-0.100000)"
fill="#000000" stroke="none">
<path d="M10162 2403 l3 -1388 60 -3 c111 -6 100 -58 100 460 0 329 3 453 11
453 6 0 175 -169 375 -375 200 -206 398 -411 441 -455 l77 -80 107 -3 c58 -2
110 0 115 5 9 9 -146 170 -623 649 -239 240 -308 315 -302 327 5 8 198 207
429 442 231 235 421 434 423 441 3 11 -16 14 -95 14 l-99 0 -80 -82 c-44 -46
-176 -184 -294 -308 -369 -388 -471 -491 -481 -485 -5 4 -9 352 -9 891 l0 884
-80 0 -80 0 2 -1387z"/>
<path d="M1070 3664 c-273 -50 -515 -176 -669 -350 -159 -179 -269 -411 -317
-669 -27 -142 -27 -537 -1 -673 84 -432 350 -775 714 -919 159 -63 242 -77
473 -77 231 -1 298 9 460 69 332 124 571 379 692 738 102 305 113 717 29 1037
-41 153 -130 329 -230 450 -174 213 -394 344 -662 395 -102 19 -382 19 -489
-1z m492 -173 c152 -35 301 -111 411 -210 57 -51 150 -170 192 -246 104 -186
155 -416 155 -697 -1 -446 -128 -769 -388 -984 -85 -70 -241 -147 -367 -182
-93 -25 -113 -27 -290 -26 -174 0 -198 3 -288 27 -277 75 -481 246 -614 512
-175 350 -175 910 0 1260 150 300 409 500 727 560 104 20 346 13 462 -14z"/>
<path d="M11885 3628 c-119 -65 -103 -224 27 -258 32 -9 46 -7 83 9 108 48
115 195 12 244 -40 19 -93 22 -122 5z"/>
<path d="M3208 3403 l-78 -23 -2 -243 -3 -242 -167 -3 -168 -2 0 -75 0 -75
168 -2 167 -3 6 -710 c3 -469 9 -722 16 -745 50 -162 117 -238 241 -276 110
-34 302 -17 380 32 19 13 22 23 22 85 0 64 -2 70 -17 64 -100 -42 -162 -56
-228 -53 -145 7 -213 76 -241 245 -11 69 -14 219 -14 710 0 342 3 628 6 637 5
14 37 16 250 16 l244 0 0 75 0 75 -247 2 -248 3 -5 266 -5 266 -77 -24z"/>
<path d="M4715 2915 c-289 -63 -530 -318 -616 -653 -39 -154 -43 -423 -9 -602
36 -188 121 -353 245 -477 158 -156 354 -223 610 -209 194 11 347 59 518 164
l57 35 0 89 c0 69 -3 87 -12 82 -7 -5 -33 -22 -58 -40 -138 -99 -330 -166
-510 -179 -117 -8 -248 17 -343 67 -75 39 -189 151 -236 231 -70 118 -121 318
-121 470 l0 57 695 0 694 0 -5 118 c-8 162 -28 284 -65 388 -85 244 -242 400
-455 454 -92 24 -293 26 -389 5z m313 -150 c240 -57 387 -265 418 -592 l7 -73
-603 0 -602 0 7 58 c14 115 77 278 144 376 128 186 398 285 629 231z"/>
<path d="M6662 2915 c-244 -55 -454 -230 -562 -467 -74 -166 -101 -303 -101
-527 -1 -184 8 -253 48 -391 107 -365 404 -579 774 -557 249 15 419 100 564
283 30 37 55 72 55 76 0 5 5 8 11 8 17 0 5 -405 -15 -494 -44 -198 -136 -343
-276 -436 -110 -73 -294 -120 -472 -120 -158 0 -317 40 -479 121 -42 21 -79
35 -83 32 -3 -4 -6 -42 -6 -84 l0 -79 48 -23 c69 -35 216 -84 302 -101 128
-25 244 -29 375 -12 148 18 195 29 282 61 251 95 409 296 467 592 34 179 37
276 34 1188 l-3 900 -82 3 -83 3 0 -139 c0 -76 -3 -142 -7 -145 -3 -4 -24 20
-45 52 -44 67 -128 149 -194 187 -99 58 -177 76 -339 80 -105 3 -169 -1 -213
-11z m356 -155 c162 -39 294 -147 375 -306 53 -106 59 -142 64 -409 6 -279 -3
-388 -41 -496 -69 -199 -228 -348 -426 -401 -108 -28 -280 -28 -375 2 -216 68
-366 257 -421 530 -25 124 -25 386 0 505 48 224 182 430 340 518 40 22 138 58
191 70 56 13 215 6 293 -13z"/>
<path d="M8756 2914 c-98 -19 -219 -61 -306 -105 -124 -63 -121 -59 -118 -172
l3 -97 84 60 c99 71 204 122 310 153 111 32 301 31 383 -2 161 -63 249 -222
273 -493 7 -75 7 -77 -16 -82 -13 -3 -150 -24 -304 -46 -337 -49 -429 -69
-531 -111 -208 -87 -330 -222 -363 -404 -51 -277 84 -521 340 -612 66 -24 88
-27 204 -27 93 0 149 5 195 18 187 51 339 170 443 346 l32 55 5 -190 5 -190
60 -3 c32 -2 70 0 83 3 l23 6 -4 677 c-3 642 -5 682 -24 769 -57 249 -211 412
-427 452 -80 15 -265 12 -350 -5z m631 -1051 c-10 -269 -65 -420 -203 -558
-109 -109 -208 -159 -351 -175 -282 -31 -480 112 -491 354 -7 139 31 250 108
320 89 80 209 114 600 171 162 24 306 44 319 44 l24 1 -6 -157z"/>
<path d="M11862 1953 l3 -938 50 -3 c27 -2 65 -1 83 3 l32 6 -2 932 -3 932
-83 3 -82 3 2 -938z"/>
</g>
</svg>
